<svg xmlns="http://www.w3.org/2000/svg" viewBox="0 0 609 958.12">
  <path d="M69.01 958.12c-7-12-13.73-24.23-21-36.1-2.93-4.79-6.85-9-10.6-13.24-2.14-2.41-2.63-4.48-1.47-7.61 10-27.12 17.21-55.06 18.85-83.92 1.47-25.87 3.58-52-1.7-77.67-2-10-6.45-19.5-10-29.15a173.76 173.76 0 0 1-10.86-60c0-18.62-.57-37.37 1.36-55.82a282.92 282.92 0 0 1 37.17-113.84c12.3-21.17 27.12-40.33 45.33-56.79 1.1-1 2.33-1.84 3.74-2.95-1.44-1.72-2.34-2.87-3.32-3.95-14.21-15.7-21.3-34.26-22.51-55.29-.84-14.59.19-29 5.37-42.7 5.26-13.94 13.8-24.8 29.7-27.18 10.7-1.61 20.5 1.42 29.39 7.2 18.07 11.73 27.66 28.73 30.33 49.89.12 1 .3 1.93.59 3.75a28.91 28.91 0 0 0 3.91-2.27c18.66-15.57 40.69-22.83 64.3-26.12a325.68 325.68 0 0 1 70.26-1.83c29.66 2.31 58.32 8.35 83 26.46 5.47 4 10.5 8.66 16.19 13.39 4-5.19 8.09-10.38 12.1-15.61 12.34-16.08 27.8-27.18 48.32-29.95 11.25-1.52 22.26-.45 32.64 4.58 19.35 9.36 26.14 28.83 16.9 50.4-9.16 21.4-23.28 38.7-44.26 49.74-1.73.9-3.37 2-5.39 3.17a18.58 18.58 0 0 0 2.16 3.13c27.14 24.65 43.14 55.84 53.16 90.52a306.58 306.58 0 0 1 11.23 67.25c.78 13.44 1.61 26.89 1.74 40.35.2 20.21-3.47 40-7.12 59.84-4.23 23-8.34 46-11.29 69.23a99 99 0 0 0 1.2 30.71c1.5 7.78 6.43 14.89 9.73 22.33 8.3 18.71 16.49 37.46 24.87 56.13a11.62 11.62 0 0 1 .35 9.93c-10.37 26.02-17.21 53.08-22.37 80.55a18.78 18.78 0 0 0 0 3.44zm163.71-385v59c.11 38.75 35.4 75.18 82 67.88 35-5.49 59.41-35.51 59.41-70.94V518.11a80.1 80.1 0 0 0-1-13.41 70.79 70.79 0 0 0-78.23-59c-34.87 4.34-62 33.89-62.08 68.95-.16 19.47-.11 38.96-.11 58.45zm-40-137.42v9.47c.08 7.06 4.74 12.25 11.33 12.67a12.05 12.05 0 0 0 12.89-11.74 212.55 212.55 0 0 0 0-21.42 12.37 12.37 0 0 0-12.45-11.8c-6.73.18-11.66 5.55-11.75 12.85-.06 3.3-.03 6.62-.03 9.95zm224.53 0c0-3.65.25-7.33-.05-11-.59-6.87-6.15-12-12.43-11.86-6.53.16-11.88 5.8-12 12.78q-.12 9.72 0 19.44c.09 7.24 5.13 12.55 11.92 12.71s12.12-4.86 12.54-12.14c.17-3.28.01-6.62.01-9.94zM574.01 958.12c2.71-11.75 5.35-23.52 8.17-35.25 1.2-5 2.79-9.84 4.46-15.63a30.59 30.59 0 0 1 2.07 3.33q10.18 23.76 20.3 47.55zM.01 958.12l12.72-27 15.28 27z"/>
  <path d="M415.71 309.61c-11.62-3.9-22.34-8-33.34-11.09-18.48-5.2-37.4-7.37-56.64-7.82-42.36-1-83.4 6.13-123.65 18.73-1.09.34-2.23.5-3.91.87V196.64c0-9.57 0-9.65-9.73-8.59-12.93 1.42-25.48-.44-37.72-4.42-22.63-7.37-35.33-23.38-39.46-46.48-1.81-10.06-2.26-20.2 1.29-30 6.26-17.33 20.36-25.12 36.93-29.66 3.67-1 7.48-1.55 10.47-2.16 1.37-7.84 1.69-15.62 4.16-22.65 9.9-28.14 29.74-45.13 59.19-50.4 20.53-3.67 41-3.05 61 3 16 4.79 23.35 11.18 30.78 26.32 1.64-1 3.27-2 4.82-3.07a129.17 129.17 0 0 1 59.62-22.32c25.62-3 49.12 4.23 72 14.25a199.44 199.44 0 0 1 30.04 16.55c12.45 8.2 19.86 20.52 21.13 35.31 1.47 17 2.47 34.27 1.73 51.33-.84 19.32-11 35-24.21 48.57-17 17.44-37.29 30.05-59.58 39.49-3.91 1.66-5 3.74-5 7.79.16 28.17.08 56.33.08 84.5z"/>
  <path fill="#fff" d="M417.24 435.69c0 3.32.16 6.66 0 10-.42 7.28-5.71 12.3-12.54 12.14s-11.83-5.47-11.92-12.71q-.12-9.72 0-19.44c.1-7 5.45-12.62 12-12.78 6.28-.16 11.84 5 12.43 11.86.3 3.63.05 7.31.05 11z"/>
  <path d="M302.61 593.07c-3.51-1.45-7.08-2.32-10-4.22-9.51-6.24-18.42-13.38-24.54-23.09a73.12 73.12 0 0 1-8.19-18c-3.07-10.32 1-18.47 10.9-22.74a47.4 47.4 0 0 1 14.29-4c14.88-1.32 29.88-2.5 44.48 2.17 15 4.81 19.73 14.47 14.35 29.38-5.81 16.12-17.83 27-31.51 36.27-2.71 1.89-6.14 2.71-9.78 4.23z"/>
</svg>